<svg id="Layer_1" data-name="Layer 1" xmlns="http://www.w3.org/2000/svg" xmlns:xlink="http://www.w3.org/1999/xlink" viewBox="0 0 836.65 227.56"><defs><style>.cls-1{fill:url(#linear-gradient);}.cls-2{isolation:isolate;fill:url(#linear-gradient-2);}.cls-3{fill:#314572;}</style><linearGradient id="linear-gradient" x1="6847.26" y1="7086.9" x2="6881.38" y2="7270.43" gradientUnits="userSpaceOnUse"><stop offset="0" stop-color="#58698f"/><stop offset="1" stop-color="#324673"/></linearGradient><linearGradient id="linear-gradient-2" x1="6875.53" y1="7109.01" x2="6960.24" y2="7253.71" gradientUnits="userSpaceOnUse"><stop offset="0" stop-color="#98a7c9"/><stop offset="1" stop-color="#67779c"/></linearGradient></defs><g id="Layer_2" data-name="Layer 2"><g id="Layer_1-2" data-name="Layer 1-2"><path class="cls-1" d="M6913.67,7270.43l-7.05,7a11.06,11.06,0,0,1-15.64,0h0l-5.36-5.38-1.9-1.9-31.85-31.83a9.81,9.81,0,0,1,0-13.84l8.13-8.14,22,22a25.57,25.57,0,0,0,36.14,0l-11-11h0l-50.26-50.26-40.67-40.67h0l-35-35,33,45-9.31,46.46a49,49,0,0,0,13.41,44.29l71.59,71.59a15.49,15.49,0,0,0,21.91,0l0,0,38.32-38.3h0a25.79,25.79,0,0,0-36.47,0Z" transform="translate(-6781.18 -7085.72)"/><path class="cls-2" d="M6966.28,7250.41l8.86-44.26a49.1,49.1,0,0,0-13.41-44.29l-71.61-71.59a15.49,15.49,0,0,0-21.91,0l0,0-38.29,38.3a25.79,25.79,0,0,0,36.47,0l7.06-7a11,11,0,0,1,15.63,0h0l5.36,5.36,1.9,1.9,31.85,31.85a9.74,9.74,0,0,1,0,13.78l0,0-8.13,8.14-22-22a25.51,25.51,0,0,0-36,0h0l53.6,53.7,48.2,48.21,35.15,35.13Z" transform="translate(-6781.18 -7085.72)"/><path class="cls-3" d="M7077.07,7260.82c-24.82,0-44.22-12.33-45-35.67H7062c.81,8.88,6.4,13.14,14.29,13.14,8.23,0,13.48-4.11,13.48-10.84,0-21.37-57.69-9.86-57.37-50.8,0-21.88,17.92-34,42.09-34,25.14,0,42.07,12.49,43.23,34.53h-30.34c-.49-7.42-5.69-11.85-13.27-12-6.75-.17-11.85,3.28-11.85,10.53,0,20,57.05,11,57.05,49.63C7119.16,7244.7,7104,7260.82,7077.07,7260.82Z" transform="translate(-6781.18 -7085.72)"/><path class="cls-3" d="M7136.43,7138h28.12v121.65h-28.12Z" transform="translate(-6781.18 -7085.72)"/><path class="cls-3" d="M7219.78,7166.62c13.65,0,23.36,6.24,28.29,14.3v-13h28.09v91.73h-28.09v-13c-5.1,8.06-14.81,14.32-28.44,14.32-22.38,0-40.29-18.41-40.29-47.4S7197.25,7166.62,7219.78,7166.62Zm8.23,24.5c-10.53,0-20.06,7.89-20.06,22.52s9.48,22.76,20.06,22.76,20.06-8.06,20.06-22.76S7238.68,7191.12,7228,7191.12Z" transform="translate(-6781.18 -7085.72)"/><path class="cls-3" d="M7361.83,7190.29l-39,46.2h39.82v23.17h-71.21V7237.4l38.14-46.19h-37.8v-23.28h70Z" transform="translate(-6781.18 -7085.72)"/><path class="cls-3" d="M7443.37,7190.29l-39,46.2h39.82v23.17H7373V7237.4l38.15-46.19h-37.81v-23.28h70Z" transform="translate(-6781.18 -7085.72)"/><path class="cls-3" d="M7500.44,7261c-27,0-46.37-18.09-46.37-47.19s19.15-47.18,46.37-47.18c26.79,0,45.7,17.75,45.7,45.7a73.15,73.15,0,0,1-.5,8.23H7482c1,12,8.4,17.57,17.45,17.57a14.9,14.9,0,0,0,14.61-8.87H7544C7539.58,7247.17,7523.29,7261,7500.44,7261Zm-18.26-56.07h35.19c0-10-7.9-15.77-17.27-15.77s-16.27,5.57-17.92,15.77Z" transform="translate(-6781.18 -7085.72)"/><path class="cls-3" d="M7589.06,7259.66h-28.12v-91.73h28.12v15.28c6.41-9.69,16.44-16.26,28.76-16.26v29.74h-7.71c-13.28,0-21,4.61-21,20.4Z" transform="translate(-6781.18 -7085.72)"/></g></g></svg>